<?xml version="1.0" encoding="UTF-8" standalone="no"?>
<!DOCTYPE svg PUBLIC "-//W3C//DTD SVG 1.1//EN"
 "http://www.w3.org/Graphics/SVG/1.1/DTD/svg11.dtd">
<!-- Generated by graphviz version 2.34.0 (20140127.1432)
 -->
<!-- Title: controllers_diagram Pages: 1 -->
<svg width="514pt" height="288pt"
 viewBox="0.00 0.00 514.38 287.80" xmlns="http://www.w3.org/2000/svg" xmlns:xlink="http://www.w3.org/1999/xlink">
<g id="graph0" class="graph" transform="scale(1 1) rotate(0) translate(4 283.8)">
<title>controllers_diagram</title>
<polygon fill="white" stroke="white" points="-4,4 -4,-283.8 510.375,-283.8 510.375,4 -4,4"/>
<!-- _diagram_info -->
<g id="node1" class="node"><title>_diagram_info</title>
<text text-anchor="start" x="307" y="-69" font-family="Times,serif" font-size="13.00">Controllers diagram</text>
<text text-anchor="start" x="307" y="-53.4" font-family="Times,serif" font-size="13.00">Date: Jan 27 2014 &#45; 14:35</text>
<text text-anchor="start" x="307" y="-37.8" font-family="Times,serif" font-size="13.00">Migration version: 20140127134904</text>
<text text-anchor="start" x="307" y="-22.2" font-family="Times,serif" font-size="13.00">Generated by RailRoady 1.1.1</text>
<text text-anchor="start" x="307" y="-6.6" font-family="Times,serif" font-size="13.00">http://railroady.prestonlee.com</text>
</g>
<!-- ApplicationController -->
<g id="node2" class="node"><title>ApplicationController</title>
<path fill="none" stroke="black" d="M12,-129.516C12,-129.516 127.642,-129.516 127.642,-129.516 133.642,-129.516 139.642,-135.516 139.642,-141.516 139.642,-141.516 139.642,-215.116 139.642,-215.116 139.642,-221.116 133.642,-227.116 127.642,-227.116 127.642,-227.116 12,-227.116 12,-227.116 6,-227.116 1.42109e-14,-221.116 1.42109e-14,-215.116 1.42109e-14,-215.116 1.42109e-14,-141.516 1.42109e-14,-141.516 1.42109e-14,-135.516 6,-129.516 12,-129.516"/>
<text text-anchor="middle" x="69.8208" y="-209.116" font-family="Times,serif" font-size="14.00">ApplicationController</text>
<polyline fill="none" stroke="black" points="1.42109e-14,-202.316 139.642,-202.316 "/>
<polyline fill="none" stroke="black" points="1.42109e-14,-178.316 139.642,-178.316 "/>
<polyline fill="none" stroke="black" points="1.42109e-14,-154.316 139.642,-154.316 "/>
<text text-anchor="start" x="8" y="-136.316" font-family="Times,serif" font-size="14.00">_layout</text>
</g>
<!-- ArticlesController -->
<g id="node3" class="node"><title>ArticlesController</title>
<path fill="none" stroke="black" d="M159.163,-46.5C159.163,-46.5 253.026,-46.5 253.026,-46.5 259.026,-46.5 265.026,-52.5 265.026,-58.5 265.026,-58.5 265.026,-267.3 265.026,-267.3 265.026,-273.3 259.026,-279.3 253.026,-279.3 253.026,-279.3 159.163,-279.3 159.163,-279.3 153.163,-279.3 147.163,-273.3 147.163,-267.3 147.163,-267.3 147.163,-58.5 147.163,-58.5 147.163,-52.5 153.163,-46.5 159.163,-46.5"/>
<text text-anchor="middle" x="206.094" y="-261.3" font-family="Times,serif" font-size="14.00">ArticlesController</text>
<polyline fill="none" stroke="black" points="147.163,-254.5 265.026,-254.5 "/>
<text text-anchor="start" x="155.163" y="-236.5" font-family="Times,serif" font-size="14.00">create</text>
<text text-anchor="start" x="155.163" y="-219.7" font-family="Times,serif" font-size="14.00">delete</text>
<text text-anchor="start" x="155.163" y="-202.9" font-family="Times,serif" font-size="14.00">detroy</text>
<text text-anchor="start" x="155.163" y="-186.1" font-family="Times,serif" font-size="14.00">edit</text>
<text text-anchor="start" x="155.163" y="-169.3" font-family="Times,serif" font-size="14.00">find_article</text>
<text text-anchor="start" x="155.163" y="-152.5" font-family="Times,serif" font-size="14.00">index</text>
<text text-anchor="start" x="155.163" y="-135.7" font-family="Times,serif" font-size="14.00">new</text>
<text text-anchor="start" x="155.163" y="-118.9" font-family="Times,serif" font-size="14.00">show</text>
<text text-anchor="start" x="155.163" y="-102.1" font-family="Times,serif" font-size="14.00">update</text>
<polyline fill="none" stroke="black" points="147.163,-95.3 265.026,-95.3 "/>
<polyline fill="none" stroke="black" points="147.163,-71.3 265.026,-71.3 "/>
<text text-anchor="start" x="155.163" y="-53.3" font-family="Times,serif" font-size="14.00">_layout</text>
</g>
<!-- ApplicationController&#45;&gt;ArticlesController -->
<g id="edge1" class="edge"><title>ApplicationController&#45;&gt;ArticlesController</title>
<path fill="none" stroke="black" d="M139.954,-170.382C140.541,-170.316 141.127,-170.25 141.714,-170.183"/>
<polyline fill="none" stroke="black" points="146.976,-169.588 142.008,-170.15 "/>
</g>
</g>
</svg>
