<?xml version="1.0" encoding="UTF-8" standalone="no"?>
<!DOCTYPE svg PUBLIC "-//W3C//DTD SVG 1.1//EN"
 "http://www.w3.org/Graphics/SVG/1.1/DTD/svg11.dtd">
<!-- Generated by graphviz version 2.34.0 (20140127.1432)
 -->
<!-- Title: models_diagram Pages: 1 -->
<svg width="409pt" height="332pt"
 viewBox="0.00 0.00 409.00 332.00" xmlns="http://www.w3.org/2000/svg" xmlns:xlink="http://www.w3.org/1999/xlink">
<g id="graph0" class="graph" transform="scale(1 1) rotate(0) translate(4 328)">
<title>models_diagram</title>
<polygon fill="white" stroke="white" points="-4,4 -4,-328 405,-328 405,4 -4,4"/>
<!-- _diagram_info -->
<g id="node1" class="node"><title>_diagram_info</title>
<text text-anchor="start" x="7.31226" y="-307" font-family="Times,serif" font-size="13.00">Models diagram</text>
<text text-anchor="start" x="7.31226" y="-291.4" font-family="Times,serif" font-size="13.00">Date: Jan 27 2014 &#45; 14:35</text>
<text text-anchor="start" x="7.31226" y="-275.8" font-family="Times,serif" font-size="13.00">Migration version: 20140127134904</text>
<text text-anchor="start" x="7.31226" y="-260.2" font-family="Times,serif" font-size="13.00">Generated by RailRoady 1.1.1</text>
<text text-anchor="start" x="7.31226" y="-244.6" font-family="Times,serif" font-size="13.00">http://railroady.prestonlee.com</text>
</g>
<!-- Article -->
<g id="node2" class="node"><title>Article</title>
<ellipse fill="none" stroke="black" cx="220" cy="-182" rx="37.2739" ry="18"/>
<text text-anchor="middle" x="220" y="-176.4" font-family="Times,serif" font-size="14.00">Article</text>
</g>
<!-- Upvote -->
<g id="node3" class="node"><title>Upvote</title>
<ellipse fill="none" stroke="black" cx="236" cy="-18" rx="39.1979" ry="18"/>
<text text-anchor="middle" x="236" y="-12.4" font-family="Times,serif" font-size="14.00">Upvote</text>
</g>
<!-- Article&#45;&gt;Upvote -->
<g id="edge1" class="edge"><title>Article&#45;&gt;Upvote</title>
<path fill="none" stroke="#28a24e" d="M179.573,-169.8C168.016,-164.524 156.739,-156.903 150,-146 145.794,-139.195 147.377,-135.558 150,-128 162.034,-93.3183 190.187,-61.3245 211.021,-41.095"/>
<ellipse fill="none" stroke="#28a24e" cx="183.466" cy="-171.411" rx="4.00001" ry="4.00001"/>
<polygon fill="#28a24e" stroke="#28a24e" points="211.056,-41.0618 221.414,-37.4608 214.689,-37.6265 218.322,-34.1911 218.322,-34.1911 218.322,-34.1911 214.689,-37.6265 215.23,-30.9214 211.056,-41.0618 211.056,-41.0618"/>
</g>
<!-- User -->
<g id="node4" class="node"><title>User</title>
<ellipse fill="none" stroke="black" cx="236" cy="-92" rx="28.9087" ry="18"/>
<text text-anchor="middle" x="236" y="-86.4" font-family="Times,serif" font-size="14.00">User</text>
</g>
<!-- Article&#45;&gt;User -->
<g id="edge2" class="edge"><title>Article&#45;&gt;User</title>
<path fill="none" stroke="#2514cc" d="M181.373,-165.872C163.398,-156.436 147.929,-143.21 157.786,-128 166.878,-113.97 183.061,-105.513 198.356,-100.44"/>
<polygon fill="#2514cc" stroke="#2514cc" points="181.871,-166.112 188.928,-174.506 186.376,-168.282 190.88,-170.451 190.88,-170.451 190.88,-170.451 186.376,-168.282 192.833,-166.397 181.871,-166.112 181.871,-166.112"/>
<polygon fill="#2514cc" stroke="#2514cc" points="198.596,-100.37 209.456,-101.89 203.396,-98.9704 208.196,-97.5704 208.196,-97.5704 208.196,-97.5704 203.396,-98.9704 206.936,-93.2504 198.596,-100.37 198.596,-100.37"/>
<text text-anchor="middle" x="181.107" y="-131.4" font-family="Times,serif" font-size="14.00">upvoters</text>
</g>
<!-- User&#45;&gt;Article -->
<g id="edge5" class="edge"><title>User&#45;&gt;Article</title>
<path fill="none" stroke="#d7746f" d="M231.441,-118.077C229.39,-129.357 226.966,-142.687 224.879,-154.167"/>
<ellipse fill="none" stroke="#d7746f" cx="232.209" cy="-113.851" rx="4.00001" ry="4.00001"/>
<polygon fill="#d7746f" stroke="#d7746f" points="224.874,-154.194 218.658,-163.228 223.979,-159.113 223.085,-164.033 223.085,-164.033 223.085,-164.033 223.979,-159.113 227.512,-164.838 224.874,-154.194 224.874,-154.194"/>
</g>
<!-- User&#45;&gt;Article -->
<g id="edge7" class="edge"><title>User&#45;&gt;Article</title>
<path fill="none" stroke="#35b6da" d="M234.506,-120.562C233.763,-128.798 232.654,-137.811 231,-146 230.451,-148.716 229.772,-151.519 229.021,-154.302"/>
<polygon fill="#35b6da" stroke="#35b6da" points="234.527,-120.291 239.774,-110.662 234.907,-115.306 235.287,-110.32 235.287,-110.32 235.287,-110.32 234.907,-115.306 230.8,-109.978 234.527,-120.291 234.527,-120.291"/>
<polygon fill="#35b6da" stroke="#35b6da" points="228.958,-154.515 221.789,-162.812 227.529,-159.306 226.101,-164.098 226.101,-164.098 226.101,-164.098 227.529,-159.306 230.413,-165.384 228.958,-154.515 228.958,-154.515"/>
<text text-anchor="middle" x="255.552" y="-131.4" font-family="Times,serif" font-size="14.00">upvoted</text>
</g>
<!-- User&#45;&gt;Upvote -->
<g id="edge6" class="edge"><title>User&#45;&gt;Upvote</title>
<path fill="none" stroke="#516e4a" d="M236,-65.7923C236,-59.5805 236,-52.8963 236,-46.5786"/>
<ellipse fill="none" stroke="#516e4a" cx="236" cy="-69.937" rx="4" ry="4"/>
<polygon fill="#516e4a" stroke="#516e4a" points="236,-46.4407 240.5,-36.4406 236,-41.4407 236,-36.4407 236,-36.4407 236,-36.4407 236,-41.4407 231.5,-36.4407 236,-46.4407 236,-46.4407"/>
</g>
<!-- ActiveRecord::Base -->
<g id="node5" class="node"><title>ActiveRecord::Base</title>
<ellipse fill="none" stroke="black" cx="313" cy="-281" rx="88.2033" ry="18"/>
<text text-anchor="middle" x="313" y="-275.4" font-family="Times,serif" font-size="14.00">ActiveRecord::Base</text>
</g>
<!-- ActiveRecord::Base&#45;&gt;Article -->
<g id="edge3" class="edge"><title>ActiveRecord::Base&#45;&gt;Article</title>
<path fill="none" stroke="black" d="M296.801,-263.104C280.641,-246.249 255.834,-220.375 238.812,-202.621"/>
<polyline fill="none" stroke="black" points="235.091,-198.74 238.551,-202.349 "/>
</g>
<!-- ActiveRecord::Base&#45;&gt;Upvote -->
<g id="edge4" class="edge"><title>ActiveRecord::Base&#45;&gt;Upvote</title>
<path fill="none" stroke="black" d="M317.013,-262.785C319.584,-250.853 322.677,-234.555 324,-220 326.271,-195.02 324.053,-188.07 317,-164 302.915,-115.932 270.651,-66.3357 251.363,-39.4163"/>
<polyline fill="none" stroke="black" points="248.383,-35.2943 251.312,-39.3466 "/>
</g>
<!-- ActiveRecord::Base&#45;&gt;User -->
<g id="edge8" class="edge"><title>ActiveRecord::Base&#45;&gt;User</title>
<path fill="none" stroke="black" d="M313.3,-262.599C313.024,-232.753 308.929,-170.878 282,-128 276.866,-119.826 269.096,-112.853 261.396,-107.333"/>
<polyline fill="none" stroke="black" points="257.142,-104.418 261.267,-107.244 "/>
</g>
</g>
</svg>
