<?xml version="1.0" encoding="UTF-8" standalone="no"?>
<!DOCTYPE svg PUBLIC "-//W3C//DTD SVG 1.1//EN"
 "http://www.w3.org/Graphics/SVG/1.1/DTD/svg11.dtd">
<!-- Generated by graphviz version 2.34.0 (20140127.1432)
 -->
<!-- Title: models_diagram Pages: 1 -->
<svg width="409pt" height="746pt"
 viewBox="0.00 0.00 409.00 746.00" xmlns="http://www.w3.org/2000/svg" xmlns:xlink="http://www.w3.org/1999/xlink">
<g id="graph0" class="graph" transform="scale(1 1) rotate(0) translate(4 742)">
<title>models_diagram</title>
<polygon fill="white" stroke="white" points="-4,4 -4,-742 405,-742 405,4 -4,4"/>
<!-- _diagram_info -->
<g id="node1" class="node"><title>_diagram_info</title>
<text text-anchor="start" x="7.31226" y="-721" font-family="Times,serif" font-size="13.00">Models diagram</text>
<text text-anchor="start" x="7.31226" y="-705.4" font-family="Times,serif" font-size="13.00">Date: Jan 27 2014 &#45; 14:35</text>
<text text-anchor="start" x="7.31226" y="-689.8" font-family="Times,serif" font-size="13.00">Migration version: 20140127134904</text>
<text text-anchor="start" x="7.31226" y="-674.2" font-family="Times,serif" font-size="13.00">Generated by RailRoady 1.1.1</text>
<text text-anchor="start" x="7.31226" y="-658.6" font-family="Times,serif" font-size="13.00">http://railroady.prestonlee.com</text>
</g>
<!-- Article -->
<g id="node2" class="node"><title>Article</title>
<path fill="none" stroke="black" d="M163.495,-462.8C163.495,-462.8 272.505,-462.8 272.505,-462.8 278.505,-462.8 284.505,-468.8 284.505,-474.8 284.505,-474.8 284.505,-601.2 284.505,-601.2 284.505,-607.2 278.505,-613.2 272.505,-613.2 272.505,-613.2 163.495,-613.2 163.495,-613.2 157.495,-613.2 151.495,-607.2 151.495,-601.2 151.495,-601.2 151.495,-474.8 151.495,-474.8 151.495,-468.8 157.495,-462.8 163.495,-462.8"/>
<text text-anchor="middle" x="218" y="-595.2" font-family="Times,serif" font-size="14.00">Article</text>
<polyline fill="none" stroke="black" points="151.495,-588.4 284.505,-588.4 "/>
<text text-anchor="start" x="159.495" y="-570.4" font-family="Times,serif" font-size="14.00">id :integer</text>
<text text-anchor="start" x="159.495" y="-553.6" font-family="Times,serif" font-size="14.00">user_id :integer</text>
<text text-anchor="start" x="159.495" y="-536.8" font-family="Times,serif" font-size="14.00">link :string</text>
<text text-anchor="start" x="159.495" y="-520" font-family="Times,serif" font-size="14.00">title :string</text>
<text text-anchor="start" x="159.495" y="-503.2" font-family="Times,serif" font-size="14.00">text :text</text>
<text text-anchor="start" x="159.495" y="-486.4" font-family="Times,serif" font-size="14.00">created_at :datetime</text>
<text text-anchor="start" x="159.495" y="-469.6" font-family="Times,serif" font-size="14.00">updated_at :datetime</text>
</g>
<!-- Upvote -->
<g id="node3" class="node"><title>Upvote</title>
<path fill="none" stroke="black" d="M181.495,-0.6C181.495,-0.6 290.505,-0.6 290.505,-0.6 296.505,-0.6 302.505,-6.6 302.505,-12.6 302.505,-12.6 302.505,-105.4 302.505,-105.4 302.505,-111.4 296.505,-117.4 290.505,-117.4 290.505,-117.4 181.495,-117.4 181.495,-117.4 175.495,-117.4 169.495,-111.4 169.495,-105.4 169.495,-105.4 169.495,-12.6 169.495,-12.6 169.495,-6.6 175.495,-0.6 181.495,-0.6"/>
<text text-anchor="middle" x="236" y="-99.4" font-family="Times,serif" font-size="14.00">Upvote</text>
<polyline fill="none" stroke="black" points="169.495,-92.6 302.505,-92.6 "/>
<text text-anchor="start" x="177.495" y="-74.6" font-family="Times,serif" font-size="14.00">id :integer</text>
<text text-anchor="start" x="177.495" y="-57.8" font-family="Times,serif" font-size="14.00">user_id :integer</text>
<text text-anchor="start" x="177.495" y="-41" font-family="Times,serif" font-size="14.00">article_id :integer</text>
<text text-anchor="start" x="177.495" y="-24.2" font-family="Times,serif" font-size="14.00">created_at :datetime</text>
<text text-anchor="start" x="177.495" y="-7.4" font-family="Times,serif" font-size="14.00">updated_at :datetime</text>
</g>
<!-- Article&#45;&gt;Upvote -->
<g id="edge1" class="edge"><title>Article&#45;&gt;Upvote</title>
<path fill="none" stroke="#60de88" d="M148.179,-455.724C138.657,-440.704 130.334,-424.518 125,-408 90.5863,-301.418 78.4258,-257.857 125,-156 133.255,-137.946 146.768,-121.988 161.574,-108.524"/>
<ellipse fill="none" stroke="#60de88" cx="150.444" cy="-459.191" rx="4.00002" ry="4.00002"/>
<polygon fill="#60de88" stroke="#60de88" points="161.864,-108.271 172.364,-105.109 165.639,-104.992 169.413,-101.712 169.413,-101.712 169.413,-101.712 165.639,-104.992 166.461,-98.3154 161.864,-108.271 161.864,-108.271"/>
</g>
<!-- User -->
<g id="node4" class="node"><title>User</title>
<path fill="none" stroke="black" d="M145.722,-156.4C145.722,-156.4 326.278,-156.4 326.278,-156.4 332.278,-156.4 338.278,-162.4 338.278,-168.4 338.278,-168.4 338.278,-395.6 338.278,-395.6 338.278,-401.6 332.278,-407.6 326.278,-407.6 326.278,-407.6 145.722,-407.6 145.722,-407.6 139.722,-407.6 133.722,-401.6 133.722,-395.6 133.722,-395.6 133.722,-168.4 133.722,-168.4 133.722,-162.4 139.722,-156.4 145.722,-156.4"/>
<text text-anchor="middle" x="236" y="-389.6" font-family="Times,serif" font-size="14.00">User</text>
<polyline fill="none" stroke="black" points="133.722,-382.8 338.278,-382.8 "/>
<text text-anchor="start" x="141.722" y="-364.8" font-family="Times,serif" font-size="14.00">id :integer</text>
<text text-anchor="start" x="141.722" y="-348" font-family="Times,serif" font-size="14.00">email :string</text>
<text text-anchor="start" x="141.722" y="-331.2" font-family="Times,serif" font-size="14.00">encrypted_password :string</text>
<text text-anchor="start" x="141.722" y="-314.4" font-family="Times,serif" font-size="14.00">reset_password_token :string</text>
<text text-anchor="start" x="141.722" y="-297.6" font-family="Times,serif" font-size="14.00">reset_password_sent_at :datetime</text>
<text text-anchor="start" x="141.722" y="-280.8" font-family="Times,serif" font-size="14.00">remember_created_at :datetime</text>
<text text-anchor="start" x="141.722" y="-264" font-family="Times,serif" font-size="14.00">sign_in_count :integer</text>
<text text-anchor="start" x="141.722" y="-247.2" font-family="Times,serif" font-size="14.00">current_sign_in_at :datetime</text>
<text text-anchor="start" x="141.722" y="-230.4" font-family="Times,serif" font-size="14.00">last_sign_in_at :datetime</text>
<text text-anchor="start" x="141.722" y="-213.6" font-family="Times,serif" font-size="14.00">current_sign_in_ip :string</text>
<text text-anchor="start" x="141.722" y="-196.8" font-family="Times,serif" font-size="14.00">last_sign_in_ip :string</text>
<text text-anchor="start" x="141.722" y="-180" font-family="Times,serif" font-size="14.00">created_at :datetime</text>
<text text-anchor="start" x="141.722" y="-163.2" font-family="Times,serif" font-size="14.00">updated_at :datetime</text>
</g>
<!-- Article&#45;&gt;User -->
<g id="edge2" class="edge"><title>Article&#45;&gt;User</title>
<path fill="none" stroke="#4b95ce" d="M156.357,-452.831C154.567,-444.009 154.465,-434.979 156.786,-426 157.519,-423.166 158.32,-420.329 159.185,-417.493"/>
<polygon fill="#4b95ce" stroke="#4b95ce" points="156.416,-453.044 154.716,-463.877 157.736,-457.867 159.057,-462.689 159.057,-462.689 159.057,-462.689 157.736,-457.867 163.397,-461.501 156.416,-453.044 156.416,-453.044"/>
<polygon fill="#4b95ce" stroke="#4b95ce" points="159.229,-417.359 166.631,-409.268 160.793,-412.61 162.357,-407.861 162.357,-407.861 162.357,-407.861 160.793,-412.61 158.083,-406.453 159.229,-417.359 159.229,-417.359"/>
<text text-anchor="middle" x="180.107" y="-429.4" font-family="Times,serif" font-size="14.00">upvoters</text>
</g>
<!-- User&#45;&gt;Article -->
<g id="edge5" class="edge"><title>User&#45;&gt;Article</title>
<path fill="none" stroke="#c799ac" d="M226.592,-415.756C225.714,-428.141 224.842,-440.453 224.008,-452.219"/>
<ellipse fill="none" stroke="#c799ac" cx="226.886" cy="-411.602" rx="4" ry="4"/>
<polygon fill="#c799ac" stroke="#c799ac" points="223.986,-452.533 218.79,-462.19 223.632,-457.52 223.279,-462.508 223.279,-462.508 223.279,-462.508 223.632,-457.52 227.768,-462.826 223.986,-452.533 223.986,-452.533"/>
</g>
<!-- User&#45;&gt;Article -->
<g id="edge7" class="edge"><title>User&#45;&gt;Article</title>
<path fill="none" stroke="#2ae231" d="M231.878,-417.885C231.329,-426.728 230.706,-435.494 230,-444 229.763,-446.852 229.503,-449.751 229.222,-452.676"/>
<polygon fill="#2ae231" stroke="#2ae231" points="231.879,-417.861 236.96,-408.143 232.174,-412.869 232.468,-407.878 232.468,-407.878 232.468,-407.878 232.174,-412.869 227.976,-407.613 231.879,-417.861 231.879,-417.861"/>
<polygon fill="#2ae231" stroke="#2ae231" points="229.215,-452.75 223.723,-462.242 228.707,-457.724 228.2,-462.698 228.2,-462.698 228.2,-462.698 228.707,-457.724 232.676,-463.155 229.215,-452.75 229.215,-452.75"/>
<text text-anchor="middle" x="253.552" y="-429.4" font-family="Times,serif" font-size="14.00">upvoted</text>
</g>
<!-- User&#45;&gt;Upvote -->
<g id="edge6" class="edge"><title>User&#45;&gt;Upvote</title>
<path fill="none" stroke="#044552" d="M236,-148.1C236,-141.113 236,-134.251 236,-127.632"/>
<ellipse fill="none" stroke="#044552" cx="236" cy="-152.291" rx="4" ry="4"/>
<polygon fill="#044552" stroke="#044552" points="236,-127.448 240.5,-117.448 236,-122.448 236,-117.448 236,-117.448 236,-117.448 236,-122.448 231.5,-117.448 236,-127.448 236,-127.448"/>
</g>
<!-- ActiveRecord::Base -->
<g id="node5" class="node"><title>ActiveRecord::Base</title>
<ellipse fill="none" stroke="black" cx="313" cy="-695" rx="88.2033" ry="18"/>
<text text-anchor="middle" x="313" y="-689.4" font-family="Times,serif" font-size="14.00">ActiveRecord::Base</text>
</g>
<!-- ActiveRecord::Base&#45;&gt;Article -->
<g id="edge3" class="edge"><title>ActiveRecord::Base&#45;&gt;Article</title>
<path fill="none" stroke="black" d="M302.652,-677.117C293.681,-662.479 280.008,-640.17 266.251,-617.725"/>
<polyline fill="none" stroke="black" points="263.5,-613.236 266.112,-617.499 "/>
</g>
<!-- ActiveRecord::Base&#45;&gt;Upvote -->
<g id="edge4" class="edge"><title>ActiveRecord::Base&#45;&gt;Upvote</title>
<path fill="none" stroke="black" d="M319.731,-676.659C345.576,-607.185 432.815,-343.675 347,-156 338.063,-136.455 322.964,-119.367 306.735,-105.24"/>
<polyline fill="none" stroke="black" points="302.587,-101.712 306.396,-104.952 "/>
</g>
<!-- ActiveRecord::Base&#45;&gt;User -->
<g id="edge8" class="edge"><title>ActiveRecord::Base&#45;&gt;User</title>
<path fill="none" stroke="black" d="M312.821,-676.934C312.135,-638.29 308.836,-541.288 293,-462 289.787,-445.914 285.636,-429.239 281.04,-412.828"/>
<polyline fill="none" stroke="black" points="279.6,-407.744 280.963,-412.555 "/>
</g>
</g>
</svg>
